# xmcd
#
# Track frame offsets:
#	150
#	17649
#	40287
#	54250
#	72069
#	95090
#	113644
#	132187
#	149945
#	166839
#	185697
#	205120
#	224686
#	243258
#	259181
#	287628
#
# Disc length: 3850 seconds
#
# Revision: 2
# Processed by: cddbd v1.5.1PL2 Copyright (c) Steve Scherf et al.
# Submitted via: audiograbber 1.83.01
#
DISCID=f30f0810
DTITLE=Chartbuster Karaoke - CBE4-25
DYEAR=2003
DGENRE=Karaoke
TTITLE0=Alan Jackson - That'd Be Alright
TTITLE1=Craig Morgan - Almost Home
TTITLE2=Shania Twain - Up!
TTITLE3=Gary Allan - Man To Man
TTITLE4=Hank Williams Jr. - America Will Survive
TTITLE5=Kellie Coffer - At The End Of The Day
TTITLE6=Diamond Rio - I Believe
TTITLE7=Jimmy Wayne - Stay Gone
TTITLE8=LeAnn Rimes - Life Goes On
TTITLE9=Joe Nichols - Brokenheartsville
TTITLE10=John Michael Montgomery - Pictures
TTITLE11=Martina McBride - Concrete Angel
TTITLE12=Keith Urban - Raining On Sunday
TTITLE13=Mark Chesnutt - She Was
TTITLE14=Kenny Chesney - No Shoes, No Shirt, No Problem
TTITLE15=Blank - Blank
EXTD=
EXTT0=
EXTT1=
EXTT2=
EXTT3=
EXTT4=
EXTT5=
EXTT6=
EXTT7=
EXTT8=
EXTT9=
EXTT10=
EXTT11=
EXTT12=
EXTT13=
EXTT14=
EXTT15=
PLAYORDER=
